<svg xmlns="http://www.w3.org/2000/svg" width="390" height="390" viewBox="95 95 390 390"><g fill="rgba(255,255,255,1)"><path d="M419.917 301.632h60.622c.228-3.84.357-7.707.357-11.604 0-3.987-.136-7.943-.374-11.87H301.041v-13.23h178.231c-10.181-78.344-67.368-141.864-142.26-161.229a190.656 190.656 0 0 0-24.46-4.65v129.909H433.525c-16.007-38.125-46.709-68.526-85.002-84.153v48.182h24.46v-5.347a132.94 132.94 0 0 1 18.199 18.577h-54.17v-79.044c54.89 16.027 98.178 59.208 114.309 114.015h-150.28V97.971c-4.008-.25-8.047-.389-12.119-.389-4.147 0-8.26.147-12.342.407v143.197H128.019c15.963-54.233 58.518-97.075 112.59-113.496v78.525h-54.171a132.915 132.915 0 0 1 18.247-18.617v5.387h25.066v-47.741c-37.796 15.754-68.079 45.941-83.936 83.712H265.068V99.082a190.644 190.644 0 0 0-24.46 4.681c-74.781 19.433-131.857 82.9-142.028 161.165h178v13.23H97.319a196.114 196.114 0 0 0-.374 11.87c0 3.897.129 7.764.357 11.604H276.58v11.497H98.342c9.452 79.179 66.853 143.566 142.267 163.165a190.675 190.675 0 0 0 24.46 4.68V350.1H145.93c15.889 37.642 46.117 67.719 83.821 83.434v-48.463h-25.066v6.387a132.846 132.846 0 0 1-17.657-17.897h53.582v76.27c-53.655-16.294-95.971-58.602-112.217-112.242h148.189v144.478c4.082.26 8.194.407 12.342.407 4.072 0 8.11-.143 12.119-.393V337.589h149.904c-16.418 54.212-59.465 96.854-113.936 112.76V373.561h53.58a132.957 132.957 0 0 1-17.609 17.857v-6.347h-24.46v48.902c38.201-15.588 68.848-45.879 84.887-83.874H312.551v130.902a190.794 190.794 0 0 0 24.46-4.649c75.521-19.531 133.026-83.968 142.488-163.224H301.039v-11.497h118.878z"/></g></svg>