<svg xmlns="http://www.w3.org/2000/svg" width="577.12" height="577.12" viewBox="0 0 577.12 577.12"><g fill="rgba(255,255,255,.05)"><path d="M419.917 301.632h60.622c.228-3.84.357-7.707.357-11.604 0-3.987-.136-7.943-.374-11.87H301.041v-13.23h178.231c-10.181-78.344-67.368-141.864-142.26-161.229a190.656 190.656 0 0 0-24.46-4.65v129.909H433.525c-16.007-38.125-46.709-68.526-85.002-84.153v48.182h24.46v-5.347a132.94 132.94 0 0 1 18.199 18.577h-54.17v-79.044c54.89 16.027 98.178 59.208 114.309 114.015h-150.28V97.971c-4.008-.25-8.047-.389-12.119-.389-4.147 0-8.26.147-12.342.407v143.197H128.019c15.963-54.233 58.518-97.075 112.59-113.496v78.525h-54.171a132.915 132.915 0 0 1 18.247-18.617v5.387h25.066v-47.741c-37.796 15.754-68.079 45.941-83.936 83.712H265.068V99.082a190.644 190.644 0 0 0-24.46 4.681c-74.781 19.433-131.857 82.9-142.028 161.165h178v13.23H97.319a196.114 196.114 0 0 0-.374 11.87c0 3.897.129 7.764.357 11.604H276.58v11.497H98.342c9.452 79.179 66.853 143.566 142.267 163.165a190.675 190.675 0 0 0 24.46 4.68V350.1H145.93c15.889 37.642 46.117 67.719 83.821 83.434v-48.463h-25.066v6.387a132.846 132.846 0 0 1-17.657-17.897h53.582v76.27c-53.655-16.294-95.971-58.602-112.217-112.242h148.189v144.478c4.082.26 8.194.407 12.342.407 4.072 0 8.11-.143 12.119-.393V337.589h149.904c-16.418 54.212-59.465 96.854-113.936 112.76V373.561h53.58a132.957 132.957 0 0 1-17.609 17.857v-6.347h-24.46v48.902c38.201-15.588 68.848-45.879 84.887-83.874H312.551v130.902a190.794 190.794 0 0 0 24.46-4.649c75.521-19.531 133.026-83.968 142.488-163.224H301.039v-11.497h118.878z"/><path d="M289.73 73.82c119.06 0 215.57 96.51 215.57 215.57 0 119.061-96.51 215.57-215.57 215.57-119.05 0-215.57-96.51-215.57-215.57 0-119.06 96.52-215.57 215.57-215.57zm204.44 215.71c0-112.37-91.71-203.46-204.84-203.46-113.13 0-204.83 91.09-204.83 203.46 0 112.36 91.7 203.45 204.83 203.45 113.13-.001 204.84-91.09 204.84-203.45z"/></g><g fill="rgba(255,255,255,.05)"><path d="M551.735 295.794l5.748.125a265.77 265.77 0 0 1-.545 11.691c-.266 3.915-.62 7.798-1.055 11.659a277.128 277.128 0 0 1-3.575 23.119 266.369 266.369 0 0 1-2.569 11.416 251.866 251.866 0 0 1-3.047 11.297 251.322 251.322 0 0 1-3.524 11.155l-5.491-1.86-6.007-2.041-5.53-1.881-5.094-1.722-5.996-2.042a253.88 253.88 0 0 0 3.097-9.935c.953-3.32 1.836-6.671 2.66-10.055l-5.83-1.417a247.597 247.597 0 0 1-2.595 9.796 240.674 240.674 0 0 1-3.012 9.687 230.672 230.672 0 0 1-3.459 9.537 227.4 227.4 0 0 1-3.865 9.378 231.942 231.942 0 0 1-4.262 9.199l5.383 2.657a225.682 225.682 0 0 0 4.377-9.446c1.38-3.171 2.71-6.372 3.961-9.616l5.901 2.3 5.009 1.939 5.405 2.108 5.932 2.3 5.415 2.108a268.575 268.575 0 0 1-4.507 10.795 268.156 268.156 0 0 1-4.962 10.594 260.958 260.958 0 0 1-5.417 10.364 249.58 249.58 0 0 1-5.853 10.135 259.827 259.827 0 0 1-6.287 9.855 262.927 262.927 0 0 1-6.721 9.575 288.37 288.37 0 0 1-7.124 9.277l-4.57-3.671-5.014-4.021-4.247-3.413-4.147-3.331-4.945-3.969a228.863 228.863 0 0 0 6.312-8.274 242.58 242.58 0 0 0 5.948-8.553l-4.989-3.329a228.65 228.65 0 0 1-5.793 8.325 241.733 241.733 0 0 1-12.649 15.888 230.979 230.979 0 0 1-6.815 7.514 233.044 233.044 0 0 1-7.159 7.216l4.156 4.331a243.378 243.378 0 0 0 7.333-7.392 232.045 232.045 0 0 0 7-7.719l4.761 4.175 3.994 3.508 4.063 3.56 4.838 4.246 4.417 3.867a279.378 279.378 0 0 1-7.891 8.641 277.721 277.721 0 0 1-8.252 8.281 293.446 293.446 0 0 1-8.615 7.914 267.31 267.31 0 0 1-8.946 7.537 267.853 267.853 0 0 1-9.259 7.159 291.328 291.328 0 0 1-9.56 6.753 277.634 277.634 0 0 1-9.84 6.327l-3.07-5.059-3.36-5.534-2.675-4.409-2.741-4.521-3.283-5.412a229.26 229.26 0 0 0 8.756-5.661 232.93 232.93 0 0 0 8.504-6.035l-3.546-4.839a260.918 260.918 0 0 1-8.29 5.891 231.587 231.587 0 0 1-8.543 5.515 219.02 219.02 0 0 1-8.773 5.14 220.799 220.799 0 0 1-8.996 4.766 226.625 226.625 0 0 1-9.188 4.37l2.42 5.494a233.541 233.541 0 0 0 9.431-4.485 245.845 245.845 0 0 0 9.219-4.88l3.05 5.548 2.539 4.637 2.463 4.494 3.116 5.67 2.848 5.203a265.983 265.983 0 0 1-10.361 5.445 261.956 261.956 0 0 1-10.592 5 249.728 249.728 0 0 1-10.792 4.546 271.922 271.922 0 0 1-10.991 4.062 278.126 278.126 0 0 1-11.16 3.567 270.32 270.32 0 0 1-22.74 5.675l-1.162-5.867-1.272-6.349-.963-4.882-1.028-5.154-1.235-6.218a231.14 231.14 0 0 0 10.193-2.329 253.81 253.81 0 0 0 10.073-2.771l-1.674-5.768a229.48 229.48 0 0 1-9.832 2.706 218.444 218.444 0 0 1-9.932 2.273c-3.316.688-6.67 1.295-10.032 1.832-3.342.537-6.713.993-10.103 1.38-3.369.387-6.757.713-10.163.958l.399 5.98c3.486-.244 6.964-.568 10.414-.973a233.82 233.82 0 0 0 10.363-1.415l.964 6.263.807 5.199.753 4.907.98 6.403.911 5.911a258.702 258.702 0 0 1-11.617 1.577c-3.871.436-7.769.79-11.686 1.075a294.72 294.72 0 0 1-11.716.584c-3.893.105-7.804.11-11.734.055-.56-.013-1.12-.005-1.68-.017a257.771 257.771 0 0 1-10.043-.43c-3.926-.226-7.83-.53-11.712-.926-3.902-.395-7.793-.88-11.651-1.435l.92-5.961.979-6.37.747-4.885.804-5.204.967-6.26c3.44.505 6.911.931 10.395 1.287 3.463.345 6.948.621 10.444.817l.391-5.982a227.11 227.11 0 0 1-10.175-.803 227.455 227.455 0 0 1-10.145-1.251 209.098 209.098 0 0 1-10.075-1.7 220.705 220.705 0 0 1-10.006-2.129 221.171 221.171 0 0 1-9.906-2.557l-1.676 5.765c3.36.943 6.742 1.817 10.155 2.622 3.393.804 6.808 1.529 10.255 2.185l-1.236 6.214-1.023 5.159-.966 4.87-1.258 6.304-1.18 5.916a260.903 260.903 0 0 1-11.489-2.451 270.883 270.883 0 0 1-11.378-2.939 265.665 265.665 0 0 1-11.247-3.456 274.102 274.102 0 0 1-21.983-8.381 273.202 273.202 0 0 1-10.706-4.896 272.61 272.61 0 0 1-10.485-5.359l2.917-5.308 3.062-5.585 2.438-4.458 2.542-4.625 3.052-5.555a228.19 228.19 0 0 0 9.348 4.785 231.122 231.122 0 0 0 9.547 4.379l2.41-5.489a241.993 241.993 0 0 1-9.309-4.264 250.99 250.99 0 0 1-9.11-4.67 235.764 235.764 0 0 1-8.901-5.085 243.05 243.05 0 0 1-8.673-5.461 242.933 242.933 0 0 1-8.424-5.845l-3.546 4.844a245.314 245.314 0 0 0 8.641 5.989c2.919 1.925 5.878 3.8 8.89 5.605l-3.289 5.41-2.739 4.521-2.646 4.363-3.299 5.43-3.144 5.183a278.24 278.24 0 0 1-9.976-6.269 284.1 284.1 0 0 1-9.696-6.703 257.395 257.395 0 0 1-9.397-7.117 259.987 259.987 0 0 1-9.088-7.51c-2.975-2.576-5.888-5.21-8.75-7.913s-5.652-5.465-8.392-8.285a283.815 283.815 0 0 1-8.033-8.647l4.559-4.001 4.701-4.129 4.028-3.522 3.997-3.504 4.763-4.177a237.443 237.443 0 0 0 7.143 7.728 227.726 227.726 0 0 0 7.47 7.404l4.146-4.33a248.008 248.008 0 0 1-7.284-7.221 237.083 237.083 0 0 1-6.968-7.534 247.109 247.109 0 0 1-6.64-7.837 237.416 237.416 0 0 1-12.233-16.48l-4.984 3.332a246.325 246.325 0 0 0 6.084 8.585 237.443 237.443 0 0 0 6.46 8.323l-4.948 3.963-4.144 3.33-4.215 3.379-4.866 3.905-4.724 3.798a298.492 298.492 0 0 1-7.269-9.312 284.366 284.366 0 0 1-6.852-9.621 271.994 271.994 0 0 1-6.415-9.933 271.355 271.355 0 0 1-11.512-20.646 275.103 275.103 0 0 1-9.691-21.577l5.639-2.197 5.72-2.216 5.356-2.084 4.994-1.951 5.911-2.292a230.4 230.4 0 0 0 4.069 9.722 242.417 242.417 0 0 0 4.493 9.53l5.379-2.653a232.69 232.69 0 0 1-4.378-9.298 233.883 233.883 0 0 1-7.524-19.119 226.427 226.427 0 0 1-3.107-9.81 233.481 233.481 0 0 1-2.664-9.931l-5.833 1.433c.846 3.42 1.751 6.82 2.738 10.183.997 3.372 2.043 6.736 3.182 10.052l-5.996 2.029-5.089 1.729-5.472 1.861-5.794 1.964-5.734 1.945a268.665 268.665 0 0 1-3.605-11.271 259.67 259.67 0 0 1-3.122-11.421 260.366 260.366 0 0 1-2.619-11.55 262.294 262.294 0 0 1-2.116-11.658 280.613 280.613 0 0 1-1.574-11.747c-.435-3.911-.789-7.84-1.063-11.796a272.934 272.934 0 0 1-.562-11.835l6.004-.139 6.004-.129 6.194-.135 5.414-.112 6.334-.142c.073 3.532.236 7.037.46 10.532.223 3.526.527 7.023.901 10.513l5.966-.66a228.192 228.192 0 0 1-.877-10.242c-.226-3.405-.381-6.83-.446-10.272a233.383 233.383 0 0 1-.016-10.283c.076-3.449.24-6.866.464-10.272.215-3.437.52-6.851.894-10.243l-5.967-.65a227.403 227.403 0 0 0-.919 10.502 245.028 245.028 0 0 0-.47 10.532l-6.338-.138-5.418-.118-6.219-.136-5.999-.131-6.009-.131c.008-.34.005-.67.012-1 .079-3.639.248-7.246.466-10.842.247-3.965.573-7.909.978-11.821.417-3.942.902-7.872 1.487-11.76a264.658 264.658 0 0 1 2.025-11.689 273.152 273.152 0 0 1 5.564-23.053 272.422 272.422 0 0 1 3.538-11.336l5.64 1.924 5.59 1.892 6.285 2.138 5.193 1.764 5.997 2.031a230.117 230.117 0 0 0-3.18 10.053 247.348 247.348 0 0 0-2.743 10.183l5.83 1.427a234.307 234.307 0 0 1 2.677-9.934c.962-3.3 1.994-6.568 3.095-9.805a232.43 232.43 0 0 1 3.531-9.655c1.25-3.193 2.58-6.355 3.968-9.476a226.873 226.873 0 0 1 4.384-9.307l-5.384-2.648a231.078 231.078 0 0 0-4.489 9.534 222.47 222.47 0 0 0-4.073 9.724l-5.901-2.299-5.118-1.982-6.219-2.426-5.495-2.13-5.544-2.162c1.431-3.7 2.951-7.347 4.53-10.964a277.37 277.37 0 0 1 5.016-10.753 276.37 276.37 0 0 1 5.481-10.533 267.343 267.343 0 0 1 5.936-10.273 260.443 260.443 0 0 1 6.379-10.003 264.947 264.947 0 0 1 6.823-9.704 278.412 278.412 0 0 1 7.247-9.404l4.601 3.691 4.532 3.64 5.485 4.401 4.315 3.465 4.935 3.958a247.045 247.045 0 0 0-6.453 8.321 234.798 234.798 0 0 0-6.089 8.599l4.989 3.33a257.88 257.88 0 0 1 5.934-8.382 248.081 248.081 0 0 1 6.298-8.104 227.09 227.09 0 0 1 6.642-7.827 216.267 216.267 0 0 1 6.977-7.54 237.576 237.576 0 0 1 7.289-7.223l-4.146-4.332a236.537 236.537 0 0 0-7.483 7.409 237.82 237.82 0 0 0-7.15 7.726l-4.76-4.175-4.162-3.651-5.319-4.667-4.367-3.836-4.427-3.877a278.124 278.124 0 0 1 8.022-8.737 265.601 265.601 0 0 1 8.405-8.378 274.083 274.083 0 0 1 8.757-8.001 264.72 264.72 0 0 1 9.108-7.593 276.042 276.042 0 0 1 9.419-7.206 270.44 270.44 0 0 1 9.73-6.779 271.35 271.35 0 0 1 10.011-6.353l3.032 4.987 2.993 4.937 3.804 6.274 2.887 4.764 3.292 5.413a247.774 247.774 0 0 0-8.895 5.607 245.86 245.86 0 0 0-8.643 5.983l3.545 4.839c2.764-2 5.578-3.949 8.429-5.838 2.852-1.878 5.742-3.706 8.671-5.462s5.896-3.452 8.903-5.077a210.979 210.979 0 0 1 9.115-4.692 237.658 237.658 0 0 1 9.305-4.268l-2.411-5.494a250.717 250.717 0 0 0-9.558 4.382 227.685 227.685 0 0 0-9.337 4.808l-3.049-5.558-2.684-4.89-3.55-6.459-2.77-5.062-2.799-5.102a266.35 266.35 0 0 1 21.292-10.408 261.608 261.608 0 0 1 10.971-4.492 250.777 250.777 0 0 1 11.15-4.008 254.065 254.065 0 0 1 11.31-3.524 275.663 275.663 0 0 1 11.468-3c3.821-.907 7.69-1.733 11.577-2.478l1.127 5.656 1.127 5.666 1.459 7.364 1.091 5.485 1.235 6.208a248.392 248.392 0 0 0-10.26 2.187 228.925 228.925 0 0 0-10.15 2.649l1.675 5.758a226.48 226.48 0 0 1 9.909-2.574 235.928 235.928 0 0 1 9.999-2.133 240.688 240.688 0 0 1 20.229-2.949c3.378-.336 6.775-.612 10.19-.808l-.399-5.98c-3.495.194-6.982.478-10.44.823-3.489.354-6.959.798-10.401 1.293l-.974-6.263-.85-5.52-1.138-7.437-.886-5.711-.875-5.7c3.893-.565 7.805-1.07 11.745-1.474 3.91-.395 7.837-.709 11.793-.943 3.916-.225 7.86-.369 11.822-.422 3.372-.057 6.743-.063 10.142.011.56.012 1.119.044 1.679.057 3.958.106 7.896.292 11.81.568 3.945.286 7.868.662 11.769 1.117 3.931.446 7.831.981 11.708 1.606l-.874 5.662-.885 5.742-1.143 7.437-.851 5.522-.967 6.271a237.638 237.638 0 0 0-10.361-1.437 254.67 254.67 0 0 0-10.421-.987l-.391 5.993c3.406.245 6.789.578 10.151.962 3.393.394 6.763.857 10.112 1.391 3.369.544 6.716 1.147 10.032 1.83 3.346.683 6.661 1.436 9.943 2.257a229.67 229.67 0 0 1 9.823 2.715l1.686-5.765a241.455 241.455 0 0 0-10.082-2.78 232.32 232.32 0 0 0-10.202-2.313l1.236-6.214 1.09-5.487 1.471-7.37 1.135-5.717 1.113-5.607c3.874.794 7.715 1.668 11.516 2.622 3.83.964 7.628 2.017 11.384 3.139a250.197 250.197 0 0 1 11.234 3.626 262.168 262.168 0 0 1 11.062 4.102c3.659 1.46 7.287 2.98 10.873 4.588a254.352 254.352 0 0 1 10.642 5.073 253.115 253.115 0 0 1 10.411 5.539l-2.739 4.992-2.833 5.159-3.553 6.484-2.687 4.883-3.042 5.555a246.639 246.639 0 0 0-9.226-4.883 226.605 226.605 0 0 0-9.435-4.497l-2.41 5.499a233.404 233.404 0 0 1 9.187 4.372c3.037 1.526 6.033 3.122 8.998 4.777s5.888 3.369 8.77 5.143a230.709 230.709 0 0 1 8.542 5.528 229.34 229.34 0 0 1 8.294 5.882l3.546-4.844a242.543 242.543 0 0 0-8.5-6.027 231.973 231.973 0 0 0-8.769-5.663l3.289-5.419 2.894-4.758 3.818-6.298 3.062-5.044 2.946-4.867a256.99 256.99 0 0 1 9.893 6.407 256.213 256.213 0 0 1 9.594 6.821 282.459 282.459 0 0 1 9.284 7.244 272.685 272.685 0 0 1 8.945 7.647 260.72 260.72 0 0 1 8.607 8.01 261.763 261.763 0 0 1 8.259 8.372 262.275 262.275 0 0 1 7.893 8.714l-4.283 3.757-4.508 3.953-5.333 4.685-4.171 3.65-4.762 4.177a232.314 232.314 0 0 0-7.004-7.705 245.184 245.184 0 0 0-7.341-7.402l-4.145 4.331a231.584 231.584 0 0 1 7.144 7.218 242.113 242.113 0 0 1 6.838 7.511 241.042 241.042 0 0 1 6.481 7.813 220.942 220.942 0 0 1 6.145 8.086 241.5 241.5 0 0 1 5.8 8.329l4.984-3.332a229.19 229.19 0 0 0-5.945-8.552 241.34 241.34 0 0 0-6.301-8.29l4.938-3.963 4.317-3.466 5.518-4.421 4.683-3.759 4.449-3.564a282.78 282.78 0 0 1 7.087 9.367 270.15 270.15 0 0 1 6.671 9.667 247.667 247.667 0 0 1 6.255 9.939 275.35 275.35 0 0 1 5.829 10.189 285.131 285.131 0 0 1 5.363 10.44 268.411 268.411 0 0 1 9.322 21.538l-5.326 2.064-5.699 2.216-6.275 2.443-5.114 1.989-5.901 2.292a231.987 231.987 0 0 0-3.961-9.619 233.5 233.5 0 0 0-4.375-9.448l-5.379 2.653a228.584 228.584 0 0 1 4.26 9.215 232.196 232.196 0 0 1 3.856 9.376 218.945 218.945 0 0 1 3.452 9.538 234.951 234.951 0 0 1 3.04 9.678c.93 3.241 1.788 6.511 2.587 9.809l5.822-1.434a241.688 241.688 0 0 0-2.651-10.06 238.755 238.755 0 0 0-3.114-9.92l6.006-2.04 5.189-1.767 6.318-2.143 5.805-1.964 5.411-1.842a264.431 264.431 0 0 1 3.477 11.198 267.946 267.946 0 0 1 5.424 22.804 270.636 270.636 0 0 1 1.969 11.556 275.456 275.456 0 0 1 1.477 11.615c.396 3.87.711 7.767.946 11.673.225 3.886.37 7.79.444 11.703l-5.744.125-6.234.144-6.295.133-5.424.122-6.334.132a237.704 237.704 0 0 0-.443-10.382 219.306 219.306 0 0 0-.875-10.362l-5.965.65c.366 3.349.644 6.716.859 10.102.207 3.355.354 6.729.429 10.131.067 3.362.084 6.734.01 10.133a243.921 243.921 0 0 1-.451 10.123c-.224 3.386-.518 6.75-.871 10.104l5.958.65c.375-3.433.67-6.888.896-10.363.226-3.436.391-6.903.467-10.382l6.329.138 5.429.119 6.218.135 6.246.137zm-6.782 11.034l-6.183-.404c-.24 3.646-.549 7.26-.947 10.861-.39 3.633-.849 7.243-1.396 10.822l-5.344-.816-6.261-.967-5.931-.91-4.646-.722-5.643-.863c.499-3.18.919-6.381 1.279-9.604.35-3.193.641-6.408.861-9.644.22-3.207.37-6.434.45-9.673.005-.2.02-.4.023-.6.066-3.049.053-6.07-.002-9.092a218.891 218.891 0 0 0-.389-9.681 217.67 217.67 0 0 0-.789-9.649c-.34-3.229-.761-6.428-1.241-9.609l5.51-.85 4.606-.71 5.932-.911 6.263-.963 5.39-.833a253.468 253.468 0 0 1 1.403 10.823c.382 3.599.673 7.227.903 10.873l6.341-.412a256.202 256.202 0 0 0-.887-11.162c-.379-3.719-.849-7.42-1.389-11.103a247.027 247.027 0 0 0-1.849-11.043c-.7-3.676-1.471-7.334-2.332-10.963-.86-3.64-1.802-7.261-2.813-10.844l-6.353 1.852a246.66 246.66 0 0 1 2.78 10.563 243.98 243.98 0 0 1 2.328 10.664l-5.364 1.063-6.209 1.235-5.887 1.172-4.571.911-5.454 1.081a213.209 213.209 0 0 0-2.064-9.467 209.897 209.897 0 0 0-2.466-9.376 219.274 219.274 0 0 0-6.201-18.369 212.738 212.738 0 0 0-3.695-8.973 212.03 212.03 0 0 0-4.078-8.801 226.545 226.545 0 0 0-4.454-8.609l4.799-2.636 4.171-2.29 5.265-2.886 5.548-3.05 4.839-2.645a263.51 263.51 0 0 1 5.01 9.702 247.515 247.515 0 0 1 4.574 9.922l6.222-2.735a260.724 260.724 0 0 0-4.659-10.214 274.285 274.285 0 0 0-5.123-9.984 252.604 252.604 0 0 0-5.548-9.764 267.3 267.3 0 0 0-5.964-9.512 245.297 245.297 0 0 0-6.37-9.261l-5.672 4.157a250.722 250.722 0 0 1 6.235 8.978 251.879 251.879 0 0 1 5.851 9.23l-4.724 2.868-5.413 3.283-5.13 3.119-4.074 2.472-4.684 2.839a217.383 217.383 0 0 0-5.202-8.186 209.805 209.805 0 0 0-5.558-7.953 208.812 208.812 0 0 0-5.894-7.71 222.322 222.322 0 0 0-6.209-7.447 235.436 235.436 0 0 0-6.545-7.165 223.395 223.395 0 0 0-6.852-6.881 223.593 223.593 0 0 0-7.148-6.568l3.59-4.092 3.293-3.749 3.959-4.515 4.175-4.76 3.662-4.181a269.438 269.438 0 0 1 8.02 7.437 257.982 257.982 0 0 1 7.702 7.78l5.159-4.949c-2.571-2.727-5.203-5.405-7.887-8.024s-5.429-5.18-8.225-7.682a281.334 281.334 0 0 0-8.552-7.318 259.206 259.206 0 0 0-8.881-6.946 259.185 259.185 0 0 0-9.17-6.542l-4.073 6.093a233.096 233.096 0 0 1 8.934 6.336 242.326 242.326 0 0 1 8.635 6.73l-3.475 4.335-3.969 4.935-3.753 4.679-3.157 3.932-3.403 4.247a229.43 229.43 0 0 0-7.682-5.939 232.094 232.094 0 0 0-7.94-5.595 230.041 230.041 0 0 0-8.178-5.229 242.946 242.946 0 0 0-8.405-4.875 220.442 220.442 0 0 0-8.604-4.499 218.358 218.358 0 0 0-8.792-4.123 213.407 213.407 0 0 0-8.971-3.737l1.992-5.107 1.939-4.979 2.172-5.594 2.29-5.911 2.033-5.197a241.666 241.666 0 0 1 10.1 4.251 230.948 230.948 0 0 1 9.899 4.717l3.286-6.66a250.847 250.847 0 0 0-10.186-4.863 258.45 258.45 0 0 0-20.983-8.34 259.471 259.471 0 0 0-21.643-6.493l-1.79 7.293a265.8 265.8 0 0 1 10.579 2.912 244.697 244.697 0 0 1 10.449 3.369l-1.796 5.292-2.041 5.997-1.924 5.679-1.732 5.113-1.764 5.193a223.193 223.193 0 0 0-9.269-2.913 209.146 209.146 0 0 0-9.388-2.515 215.473 215.473 0 0 0-19.052-3.786 218.58 218.58 0 0 0-9.625-1.25 223.395 223.395 0 0 0-19.387-1.284l.122-5.569.126-5.769.131-5.999.138-6.329.122-5.599c3.679.1 7.346.28 10.98.54 3.666.26 7.309.609 10.94 1.029l.813-7.484a260.894 260.894 0 0 0-11.259-1.076 281.342 281.342 0 0 0-11.311-.547c-.56-.012-1.12-.044-1.679-.057-3.229-.071-6.44-.061-9.642-.011-3.792.058-7.566.185-11.312.403a246.99 246.99 0 0 0-11.292.904l.817 7.489c3.629-.371 7.286-.661 10.962-.881a248.61 248.61 0 0 1 10.991-.38l.128 5.594.132 6.334.129 5.995.133 5.834.118 5.584c-3.252.069-6.486.208-9.702.418-3.245.209-6.472.479-9.68.829-3.229.35-6.438.77-9.629 1.25-3.212.5-6.405 1.061-9.569 1.692a212.682 212.682 0 0 0-9.488 2.104 225.331 225.331 0 0 0-9.387 2.506 242.324 242.324 0 0 0-9.266 2.918l-1.832-5.411-2.002-5.895-1.927-5.684-2.04-5.996-1.795-5.291a243.776 243.776 0 0 1 10.523-3.261 248.69 248.69 0 0 1 10.663-2.778l-1.781-7.28c-3.69.879-7.352 1.83-10.976 2.871a250.213 250.213 0 0 0-10.836 3.375 260.561 260.561 0 0 0-10.667 3.838 247.767 247.767 0 0 0-10.497 4.312 252.414 252.414 0 0 0-10.306 4.766l3.266 6.623a259.802 259.802 0 0 1 10.023-4.603 251.888 251.888 0 0 1 10.213-4.158l2.017 5.205 2.302 5.902 2.168 5.599 2.283 5.861 2.084 5.347a230.05 230.05 0 0 0-8.974 3.735 227.727 227.727 0 0 0-8.792 4.119 213.913 213.913 0 0 0-8.61 4.503 213.428 213.428 0 0 0-8.408 4.868 218.478 218.478 0 0 0-8.167 5.243 219.504 219.504 0 0 0-7.944 5.588 233.193 233.193 0 0 0-7.681 5.924l-3.701-4.602-4.168-5.192-3.758-4.683-3.963-4.938-3.476-4.337a259.4 259.4 0 0 1 8.788-6.67 239.751 239.751 0 0 1 9.069-6.294l-4.069-6.07a262.125 262.125 0 0 0-18.317 13.394 251.756 251.756 0 0 0-8.701 7.292 242.89 242.89 0 0 0-8.389 7.659 251.787 251.787 0 0 0-8.017 8.027l5.144 4.934a248.71 248.71 0 0 1 7.832-7.781 274.39 274.39 0 0 1 8.164-7.434l3.67 4.171 4.177 4.763 3.953 4.517 4.421 5.048 3.914 4.456a223.565 223.565 0 0 0-7.155 6.565 233.74 233.74 0 0 0-6.852 6.873 234.792 234.792 0 0 0-6.538 7.169 210.14 210.14 0 0 0-6.224 7.446 216.514 216.514 0 0 0-5.899 7.703 221.387 221.387 0 0 0-5.565 7.96 231.975 231.975 0 0 0-5.21 8.179l-5.202-3.154-5.973-3.621-5.133-3.113-5.41-3.289-4.718-2.863a256.82 256.82 0 0 1 5.964-9.302 271.276 271.276 0 0 1 6.378-9.023l-5.621-4.124a262.043 262.043 0 0 0-6.524 9.29 272.29 272.29 0 0 0-6.1 9.58 281.853 281.853 0 0 0-5.656 9.839 267.65 267.65 0 0 0-5.221 10.088 247.155 247.155 0 0 0-4.776 10.298l6.163 2.705a254.052 254.052 0 0 1 4.699-10 253.633 253.633 0 0 1 5.145-9.79l4.824 2.646 5.555 3.042 5.258 2.895 6.158 3.375 5.367 2.938a226.946 226.946 0 0 0-4.469 8.615 226.377 226.377 0 0 0-4.083 8.803 214.782 214.782 0 0 0-3.697 8.972 215.967 215.967 0 0 0-3.3 9.12 227.719 227.719 0 0 0-2.883 9.259 227.165 227.165 0 0 0-2.465 9.378 229.936 229.936 0 0 0-2.077 9.467l-6.155-1.225-7.071-1.405-5.886-1.168-6.214-1.236-5.348-1.067a256.003 256.003 0 0 1 5.26-21.481l-6.311-1.838c-1.04 3.628-2 7.288-2.88 10.97a243.034 243.034 0 0 0-2.392 11.091 256.105 256.105 0 0 0-1.924 11.181 245.632 245.632 0 0 0-1.396 11.252 262.793 262.793 0 0 0-.917 11.293l6.283.407c.23-3.696.55-7.359.95-11.012.4-3.682.86-7.343 1.42-10.972l5.383.838 6.261.957 5.931.92 7.128 1.096 6.23.956c-.479 3.18-.879 6.392-1.22 9.616-.34 3.193-.601 6.418-.801 9.655a211.493 211.493 0 0 0-.408 9.083c-.004.2.001.4-.003.6-.061 3.24-.051 6.471.029 9.683.079 3.243.229 6.466.449 9.682.209 3.235.5 6.452.85 9.65.36 3.219.771 6.419 1.271 9.601l-6.353.981-7.176 1.104-5.931.911-6.262.964-5.33.823a245.952 245.952 0 0 1-1.441-10.964c-.4-3.649-.72-7.327-.96-11.014l-6.11.397c.268 3.776.616 7.535 1.044 11.275.428 3.76.937 7.502 1.525 11.216a256.645 256.645 0 0 0 2.028 11.137 250.056 250.056 0 0 0 2.53 11.027c.92 3.661 1.921 7.304 3.003 10.908l5.607-1.638a247.822 247.822 0 0 1-2.877-10.676 259.601 259.601 0 0 1-2.416-10.785L46 338.449l6.208-1.234 5.887-1.172 7.123-1.415 6.309-1.263a223.31 223.31 0 0 0 2.124 9.459 225.615 225.615 0 0 0 2.517 9.347 219.866 219.866 0 0 0 2.93 9.227 211.65 211.65 0 0 0 3.343 9.085 219.748 219.748 0 0 0 3.736 8.934 227.154 227.154 0 0 0 4.12 8.762 227.216 227.216 0 0 0 4.494 8.57l-5.72 3.136-6.276 3.443-5.264 2.887-5.548 3.049-4.688 2.568c-1.78-3.219-3.5-6.478-5.138-9.774a239.687 239.687 0 0 1-4.713-9.995l-5.211 2.297a250.899 250.899 0 0 0 4.869 10.189 256.419 256.419 0 0 0 5.304 9.968 258.095 258.095 0 0 0 5.729 9.728 246.971 246.971 0 0 0 6.145 9.456 249.848 249.848 0 0 0 6.551 9.185l4.391-3.225a270.948 270.948 0 0 1-6.385-9.001 283.396 283.396 0 0 1-5.979-9.283l4.562-2.771 5.413-3.282 5.129-3.119 6.102-3.697 5.585-3.39a208.893 208.893 0 0 0 5.233 8.137 218.435 218.435 0 0 0 5.579 7.903 220.185 220.185 0 0 0 5.904 7.661 229.936 229.936 0 0 0 6.24 7.397 218.875 218.875 0 0 0 6.536 7.114c2.24 2.329 4.521 4.6 6.853 6.821a219.85 219.85 0 0 0 7.14 6.518l-4.319 4.937-4.564 5.202-3.959 4.515-4.175 4.76-3.488 3.975a249.134 249.134 0 0 1-8.17-7.399 251.56 251.56 0 0 1-7.833-7.763l-3.841 3.667a259.894 259.894 0 0 0 8.029 7.896c2.725 2.58 5.51 5.102 8.348 7.544a266.215 266.215 0 0 0 8.686 7.161 244.94 244.94 0 0 0 8.984 6.768 245.19 245.19 0 0 0 9.263 6.384l2.854-4.278a246.402 246.402 0 0 1-9.055-6.27 260.45 260.45 0 0 1-8.787-6.663l3.321-4.129 3.958-4.944 3.753-4.68 4.308-5.357 4.103-5.121a218.254 218.254 0 0 0 7.674 5.879c2.599 1.907 5.239 3.755 7.921 5.544s5.395 3.528 8.159 5.199c2.744 1.67 5.55 3.271 8.376 4.823a224.147 224.147 0 0 0 8.575 4.448 216.32 216.32 0 0 0 8.763 4.082 211.712 211.712 0 0 0 8.931 3.696l-2.363 6.08-2.374 6.109-2.173 5.594-2.299 5.901-1.908 4.909a238.505 238.505 0 0 1-10.192-4.153 253.216 253.216 0 0 1-10.013-4.579l-2.239 4.542a260.66 260.66 0 0 0 10.221 4.654 253.578 253.578 0 0 0 10.401 4.208 261.366 261.366 0 0 0 10.57 3.762 264.13 264.13 0 0 0 10.73 3.295 261.713 261.713 0 0 0 10.862 2.797l1.176-4.835a257.343 257.343 0 0 1-10.643-2.753 262.894 262.894 0 0 1-10.512-3.23l1.689-4.994 2.042-5.997 1.924-5.679 2.095-6.156 2.095-6.176a221.103 221.103 0 0 0 9.219 2.882 228.966 228.966 0 0 0 18.775 4.57 214.07 214.07 0 0 0 9.516 1.658c3.18.489 6.372.89 9.585 1.239a234.921 234.921 0 0 0 19.248 1.261h.03l-.14 6.429-.133 6.108-.131 5.999-.138 6.328-.115 5.259c-.56-.012-1.12-.004-1.68-.017a259.131 259.131 0 0 1-9.293-.393c-3.667-.21-7.321-.5-10.944-.859l-.538 4.91c3.693.38 7.417.661 11.164.884 3.157.179 6.314.327 9.503.397.56.012 1.121.004 1.68.017 3.75.052 7.481.043 11.194-.057 3.743-.098 7.468-.297 11.175-.556 3.737-.269 7.445-.608 11.135-1.027l-.542-4.934c-3.61.422-7.258.762-10.915 1.022-3.637.261-7.292.451-10.965.551l-.115-5.254-.132-6.334-.129-5.994-.137-6.074-.14-6.415c3.232-.069 6.456-.209 9.651-.42 3.225-.199 6.442-.469 9.63-.819 3.218-.34 6.408-.761 9.579-1.242a221.784 221.784 0 0 0 18.957-3.757 220.215 220.215 0 0 0 9.336-2.477c3.1-.903 6.182-1.866 9.225-2.899l2.021 5.955 1.813 5.36 1.937 5.684 2.029 5.996 1.701 4.988a243.376 243.376 0 0 1-10.435 3.354 249.454 249.454 0 0 1-10.566 2.9l1.185 4.847a274.133 274.133 0 0 0 10.787-2.936 275.117 275.117 0 0 0 10.647-3.398 254.262 254.262 0 0 0 10.477-3.872 246.033 246.033 0 0 0 10.297-4.327 251.332 251.332 0 0 0 10.106-4.761l-2.251-4.569a236.625 236.625 0 0 1-9.895 4.695 250.178 250.178 0 0 1-10.086 4.271l-1.913-4.913-2.292-5.911-2.179-5.589-2.035-5.246-2.273-5.841a205.046 205.046 0 0 0 8.933-3.696 204.615 204.615 0 0 0 8.761-4.079 224.338 224.338 0 0 0 8.579-4.444 220.909 220.909 0 0 0 8.368-4.839 219.846 219.846 0 0 0 8.155-5.193 229.58 229.58 0 0 0 7.922-5.538 228.971 228.971 0 0 0 7.67-5.874l3.817 4.755 3.292 4.093 3.759 4.683 3.963 4.938 3.311 4.134c-2.83 2.288-5.7 4.526-8.628 6.703a258.505 258.505 0 0 1-8.92 6.327l2.876 4.304a262.903 262.903 0 0 0 9.123-6.433 264.643 264.643 0 0 0 8.83-6.81 255.245 255.245 0 0 0 8.549-7.185c2.795-2.46 5.54-4.971 8.227-7.543a255.358 255.358 0 0 0 7.885-7.899l-3.871-3.695a256.757 256.757 0 0 1-7.7 7.744 245.665 245.665 0 0 1-8.034 7.416l-3.493-3.987-4.178-4.762-3.952-4.508-3.426-3.915-4.012-4.559a221.126 221.126 0 0 0 13.986-13.348 209.076 209.076 0 0 0 6.547-7.119 232.207 232.207 0 0 0 6.242-7.385 255.933 255.933 0 0 0 5.908-7.653 240.461 240.461 0 0 0 5.584-7.9 226.482 226.482 0 0 0 5.209-8.148l5.055 3.062 4.215 2.562 5.133 3.112 5.41 3.279 4.57 2.78c-1.879 3.12-3.846 6.178-5.853 9.215a273.927 273.927 0 0 1-6.247 8.955l4.431 3.248a263.456 263.456 0 0 0 6.431-9.122 265.009 265.009 0 0 0 6.006-9.401 258.2 258.2 0 0 0 5.603-9.66 237.921 237.921 0 0 0 5.187-9.889 259.397 259.397 0 0 0 4.762-10.099l-5.261-2.315a252.83 252.83 0 0 1-4.607 9.901 253.534 253.534 0 0 1-5.012 9.693l-4.695-2.573-5.555-3.052-5.259-2.886-4.289-2.354-5.16-2.823a247.61 247.61 0 0 0 4.498-8.574c1.434-2.88 2.808-5.8 4.112-8.752a204.806 204.806 0 0 0 3.735-8.931 218.775 218.775 0 0 0 6.251-18.319 209.44 209.44 0 0 0 2.524-9.348 213.629 213.629 0 0 0 2.127-9.445l5.607 1.112 4.621.921 5.886 1.169 6.214 1.236 5.299 1.056a251.207 251.207 0 0 1-2.354 10.651 246.623 246.623 0 0 1-2.811 10.551l5.666 1.644a242.012 242.012 0 0 0 2.936-10.778 249.848 249.848 0 0 0 4.429-21.898c.58-3.668 1.07-7.358 1.492-11.07.423-3.693.775-7.397 1.046-11.132z"/><g><path d="M288.56.5c159.09 0 288.06 128.97 288.06 288.06 0 159.089-128.97 288.06-288.06 288.06S.5 447.649.5 288.56C.5 129.47 129.47.5 288.56.5zm275.3 288.06c0-152.05-123.25-275.31-275.3-275.31S13.25 136.51 13.25 288.56c0 152.04 123.26 275.31 275.31 275.31s275.3-123.27 275.3-275.31z"/></g></g></svg>